<mxfile host="app.diagrams.net" agent="Mozilla/5.0 (Macintosh; Intel Mac OS X 10_15_7) AppleWebKit/537.36 (KHTML, like Gecko) Chrome/135.0.0.0 Safari/537.36" version="26.2.9">
  <diagram name="Page-1" id="WPZt4TTAz4Ni4YXsCyxv">
    <mxGraphModel dx="1798" dy="644" grid="1" gridSize="10" guides="1" tooltips="1" connect="1" arrows="1" fold="1" page="1" pageScale="1" pageWidth="850" pageHeight="1100" math="0" shadow="0">
      <root>
        <mxCell id="0" />
        <mxCell id="1" parent="0" />
        <mxCell id="Gc96LXDyXN0XG7VzX-cT-1" value="&lt;p style=&quot;margin:0px;margin-top:4px;text-align:center;&quot;&gt;&lt;i&gt;&amp;lt;&amp;lt;Interface&amp;gt;&amp;gt;&lt;/i&gt;&lt;br&gt;&lt;b&gt;BaseDeviceOps&amp;lt;Addr&amp;gt;&lt;/b&gt;&lt;/p&gt;&lt;hr size=&quot;1&quot; style=&quot;border-style:solid;&quot;&gt;&lt;p style=&quot;margin:0px;margin-left:4px;&quot;&gt;+ addr_range(): Range&amp;lt;Addr&amp;gt;&lt;/p&gt;&lt;p style=&quot;margin:0px;margin-left:4px;&quot;&gt;+ handle_read(addr, width): Result&amp;lt;usize&amp;gt;&lt;/p&gt;&lt;p style=&quot;margin:0px;margin-left:4px;&quot;&gt;+ handle_write(addr, width, data): Result&lt;/p&gt;" style="verticalAlign=top;align=left;overflow=fill;html=1;whiteSpace=wrap;" vertex="1" parent="1">
          <mxGeometry x="390" y="440" width="240" height="100" as="geometry" />
        </mxCell>
        <mxCell id="Gc96LXDyXN0XG7VzX-cT-2" value="&lt;p style=&quot;margin:0px;margin-top:4px;text-align:center;&quot;&gt;&lt;i&gt;&amp;lt;&amp;lt;Interface&amp;gt;&amp;gt;&lt;/i&gt;&lt;br&gt;&lt;b&gt;AxArchVCpu&lt;/b&gt;&lt;/p&gt;&lt;hr size=&quot;1&quot; style=&quot;border-style:solid;&quot;&gt;&lt;p style=&quot;margin:0px;margin-left:4px;&quot;&gt;+ new(id, favor_phys_cpu, phys_cpu_set,arch_config): AxArchVCpu&lt;br&gt;+ setup(entry, npt_root): Result&lt;/p&gt;&lt;p style=&quot;margin:0px;margin-left:4px;&quot;&gt;+ bind(): Result&lt;/p&gt;&lt;p style=&quot;margin:0px;margin-left:4px;&quot;&gt;+ run(): Result&amp;lt;ExitInfo&amp;gt;&lt;/p&gt;&lt;p style=&quot;margin:0px;margin-left:4px;&quot;&gt;+ unbind(): Result&lt;/p&gt;" style="verticalAlign=top;align=left;overflow=fill;html=1;whiteSpace=wrap;" vertex="1" parent="1">
          <mxGeometry x="-10" y="440" width="370" height="130" as="geometry" />
        </mxCell>
        <mxCell id="Gc96LXDyXN0XG7VzX-cT-3" value="AxAddrSpace" style="swimlane;fontStyle=1;align=center;verticalAlign=top;childLayout=stackLayout;horizontal=1;startSize=26;horizontalStack=0;resizeParent=1;resizeParentMax=0;resizeLast=0;collapsible=1;marginBottom=0;whiteSpace=wrap;html=1;" vertex="1" parent="1">
          <mxGeometry x="650" y="440" width="260" height="120" as="geometry" />
        </mxCell>
        <mxCell id="Gc96LXDyXN0XG7VzX-cT-4" value="+ root_page_table: PageTable" style="text;strokeColor=none;fillColor=none;align=left;verticalAlign=top;spacingLeft=4;spacingRight=4;overflow=hidden;rotatable=0;points=[[0,0.5],[1,0.5]];portConstraint=eastwest;whiteSpace=wrap;html=1;" vertex="1" parent="Gc96LXDyXN0XG7VzX-cT-3">
          <mxGeometry y="26" width="260" height="26" as="geometry" />
        </mxCell>
        <mxCell id="Gc96LXDyXN0XG7VzX-cT-5" value="" style="line;strokeWidth=1;fillColor=none;align=left;verticalAlign=middle;spacingTop=-1;spacingLeft=3;spacingRight=3;rotatable=0;labelPosition=right;points=[];portConstraint=eastwest;strokeColor=inherit;" vertex="1" parent="Gc96LXDyXN0XG7VzX-cT-3">
          <mxGeometry y="52" width="260" height="8" as="geometry" />
        </mxCell>
        <mxCell id="Gc96LXDyXN0XG7VzX-cT-6" value="+ map(addr, size, flag): Result&lt;div&gt;+ unmap(addr, size): Result&lt;/div&gt;&lt;div&gt;+ page_table_root(): Addr&lt;/div&gt;" style="text;strokeColor=none;fillColor=none;align=left;verticalAlign=top;spacingLeft=4;spacingRight=4;overflow=hidden;rotatable=0;points=[[0,0.5],[1,0.5]];portConstraint=eastwest;whiteSpace=wrap;html=1;" vertex="1" parent="Gc96LXDyXN0XG7VzX-cT-3">
          <mxGeometry y="60" width="260" height="60" as="geometry" />
        </mxCell>
        <mxCell id="Gc96LXDyXN0XG7VzX-cT-7" value="AxVM" style="swimlane;fontStyle=1;align=center;verticalAlign=top;childLayout=stackLayout;horizontal=1;startSize=26;horizontalStack=0;resizeParent=1;resizeParentMax=0;resizeLast=0;collapsible=1;marginBottom=0;whiteSpace=wrap;html=1;" vertex="1" parent="1">
          <mxGeometry x="410" y="140" width="210" height="150" as="geometry" />
        </mxCell>
        <mxCell id="Gc96LXDyXN0XG7VzX-cT-8" value="+ cpus: Vec&amp;lt;VCpu&amp;gt;&lt;div&gt;+ devices: Vec&amp;lt;BaseDeviceOps&amp;gt;&lt;/div&gt;&lt;div&gt;+ addrspace: AxAddrSpace&lt;/div&gt;" style="text;strokeColor=none;fillColor=none;align=left;verticalAlign=top;spacingLeft=4;spacingRight=4;overflow=hidden;rotatable=0;points=[[0,0.5],[1,0.5]];portConstraint=eastwest;whiteSpace=wrap;html=1;" vertex="1" parent="Gc96LXDyXN0XG7VzX-cT-7">
          <mxGeometry y="26" width="210" height="54" as="geometry" />
        </mxCell>
        <mxCell id="Gc96LXDyXN0XG7VzX-cT-9" value="" style="line;strokeWidth=1;fillColor=none;align=left;verticalAlign=middle;spacingTop=-1;spacingLeft=3;spacingRight=3;rotatable=0;labelPosition=right;points=[];portConstraint=eastwest;strokeColor=inherit;" vertex="1" parent="Gc96LXDyXN0XG7VzX-cT-7">
          <mxGeometry y="80" width="210" height="8" as="geometry" />
        </mxCell>
        <mxCell id="Gc96LXDyXN0XG7VzX-cT-10" value="+ new(): AxVM&lt;div&gt;+ run_vcpu(): Result&lt;/div&gt;&lt;div&gt;+ delete(): Result&lt;/div&gt;" style="text;strokeColor=none;fillColor=none;align=left;verticalAlign=top;spacingLeft=4;spacingRight=4;overflow=hidden;rotatable=0;points=[[0,0.5],[1,0.5]];portConstraint=eastwest;whiteSpace=wrap;html=1;" vertex="1" parent="Gc96LXDyXN0XG7VzX-cT-7">
          <mxGeometry y="88" width="210" height="62" as="geometry" />
        </mxCell>
        <mxCell id="Gc96LXDyXN0XG7VzX-cT-11" style="edgeStyle=orthogonalEdgeStyle;rounded=0;orthogonalLoop=1;jettySize=auto;html=1;entryX=0.5;entryY=0;entryDx=0;entryDy=0;" edge="1" parent="1" source="Gc96LXDyXN0XG7VzX-cT-8" target="Gc96LXDyXN0XG7VzX-cT-2">
          <mxGeometry relative="1" as="geometry">
            <mxPoint x="240" y="280" as="targetPoint" />
          </mxGeometry>
        </mxCell>
        <mxCell id="Gc96LXDyXN0XG7VzX-cT-12" style="edgeStyle=orthogonalEdgeStyle;rounded=0;orthogonalLoop=1;jettySize=auto;html=1;" edge="1" parent="1" source="Gc96LXDyXN0XG7VzX-cT-8" target="Gc96LXDyXN0XG7VzX-cT-1">
          <mxGeometry relative="1" as="geometry" />
        </mxCell>
        <mxCell id="Gc96LXDyXN0XG7VzX-cT-13" style="edgeStyle=orthogonalEdgeStyle;rounded=0;orthogonalLoop=1;jettySize=auto;html=1;exitX=1;exitY=0.5;exitDx=0;exitDy=0;entryX=0.5;entryY=0;entryDx=0;entryDy=0;" edge="1" parent="1" source="Gc96LXDyXN0XG7VzX-cT-8" target="Gc96LXDyXN0XG7VzX-cT-3">
          <mxGeometry relative="1" as="geometry" />
        </mxCell>
      </root>
    </mxGraphModel>
  </diagram>
</mxfile>
